<?xml version="1.0" encoding="UTF-8" standalone="no"?>
<!DOCTYPE svg PUBLIC "-//W3C//DTD SVG 1.1//EN"
 "http://www.w3.org/Graphics/SVG/1.1/DTD/svg11.dtd">
<!-- Generated by graphviz version 12.1.1 (20240910.0053)
 -->
<!-- Title: INFRA Pages: 1 -->
<svg width="380pt" height="188pt"
 viewBox="0.00 0.00 380.06 188.00" xmlns="http://www.w3.org/2000/svg" xmlns:xlink="http://www.w3.org/1999/xlink">
<g id="graph0" class="graph" transform="scale(1 1) rotate(0) translate(4 184)">
<title>INFRA</title>
<polygon fill="white" stroke="none" points="-4,4 -4,-184 376.06,-184 376.06,4 -4,4"/>
<!-- S3Client -->
<g id="node1" class="node">
<title>S3Client</title>
<path fill="#fff5cd" stroke="black" stroke-width="2" d="M166.38,-65.45C166.38,-69.07 138.21,-72 103.53,-72 68.85,-72 40.69,-69.07 40.69,-65.45 40.69,-65.45 40.69,-6.55 40.69,-6.55 40.69,-2.93 68.85,0 103.53,0 138.21,0 166.38,-2.93 166.38,-6.55 166.38,-6.55 166.38,-65.45 166.38,-65.45"/>
<path fill="none" stroke="black" stroke-width="2" d="M166.38,-65.45C166.38,-61.84 138.21,-58.91 103.53,-58.91 68.85,-58.91 40.69,-61.84 40.69,-65.45"/>
<text text-anchor="middle" x="103.53" y="-40.2" font-family="Arial" font-size="14.00">S3Client</text>
<text text-anchor="middle" x="103.53" y="-23.4" font-family="Arial" font-size="14.00">(AWS::S3::Client)</text>
</g>
<!-- R2Bucket -->
<g id="node2" class="node">
<title>R2Bucket</title>
<path fill="#fff5cd" stroke="black" stroke-width="2" d="M358.23,-65.45C358.23,-69.07 321.16,-72 275.53,-72 229.9,-72 192.83,-69.07 192.83,-65.45 192.83,-65.45 192.83,-6.55 192.83,-6.55 192.83,-2.93 229.9,0 275.53,0 321.16,0 358.23,-2.93 358.23,-6.55 358.23,-6.55 358.23,-65.45 358.23,-65.45"/>
<path fill="none" stroke="black" stroke-width="2" d="M358.23,-65.45C358.23,-61.84 321.16,-58.91 275.53,-58.91 229.9,-58.91 192.83,-61.84 192.83,-65.45"/>
<text text-anchor="middle" x="275.53" y="-40.2" font-family="Arial" font-size="14.00">R2Bucket</text>
<text text-anchor="middle" x="275.53" y="-23.4" font-family="Arial" font-size="14.00">(Cloudflare::R2::Bucket)</text>
</g>
<!-- UploadFunction -->
<g id="node3" class="node">
<title>UploadFunction</title>
<path fill="#b7e0ff" stroke="black" stroke-width="2" d="M165.06,-180C165.06,-180 12,-180 12,-180 6,-180 0,-174 0,-168 0,-168 0,-120 0,-120 0,-114 6,-108 12,-108 12,-108 165.06,-108 165.06,-108 171.06,-108 177.06,-114 177.06,-120 177.06,-120 177.06,-168 177.06,-168 177.06,-174 171.06,-180 165.06,-180"/>
<text text-anchor="middle" x="88.53" y="-148.2" font-family="Arial" font-size="14.00">UploadFunction</text>
<text text-anchor="middle" x="88.53" y="-131.4" font-family="Arial" font-size="14.00">(AWS::Lambda::Function)</text>
</g>
<!-- UploadFunction&#45;&gt;S3Client -->
<g id="edge1" class="edge">
<title>UploadFunction&#45;&gt;S3Client</title>
<path fill="none" stroke="black" d="M93.53,-107.7C94.63,-99.93 95.81,-91.57 96.96,-83.43"/>
<polygon fill="black" stroke="black" points="100.41,-84.03 98.35,-73.64 93.48,-83.05 100.41,-84.03"/>
</g>
<!-- UploadFunction&#45;&gt;R2Bucket -->
<g id="edge2" class="edge">
<title>UploadFunction&#45;&gt;R2Bucket</title>
<path fill="none" stroke="black" d="M151.06,-107.56C168.53,-97.65 187.62,-86.83 205.5,-76.7"/>
<polygon fill="black" stroke="black" points="206.99,-79.87 213.96,-71.9 203.54,-73.78 206.99,-79.87"/>
</g>
<!-- DeleteFunction -->
<g id="node4" class="node">
<title>DeleteFunction</title>
<path fill="#b7e0ff" stroke="black" stroke-width="2" d="M360.06,-180C360.06,-180 207,-180 207,-180 201,-180 195,-174 195,-168 195,-168 195,-120 195,-120 195,-114 201,-108 207,-108 207,-108 360.06,-108 360.06,-108 366.06,-108 372.06,-114 372.06,-120 372.06,-120 372.06,-168 372.06,-168 372.06,-174 366.06,-180 360.06,-180"/>
<text text-anchor="middle" x="283.53" y="-148.2" font-family="Arial" font-size="14.00">DeleteFunction</text>
<text text-anchor="middle" x="283.53" y="-131.4" font-family="Arial" font-size="14.00">(AWS::Lambda::Function)</text>
</g>
<!-- DeleteFunction&#45;&gt;S3Client -->
<g id="edge3" class="edge">
<title>DeleteFunction&#45;&gt;S3Client</title>
<path fill="none" stroke="black" d="M223.34,-107.56C206.01,-97.35 187.01,-86.16 169.36,-75.77"/>
<polygon fill="black" stroke="black" points="171.4,-72.91 161.01,-70.85 167.85,-78.94 171.4,-72.91"/>
</g>
<!-- DeleteFunction&#45;&gt;R2Bucket -->
<g id="edge4" class="edge">
<title>DeleteFunction&#45;&gt;R2Bucket</title>
<path fill="none" stroke="black" d="M280.87,-107.7C280.28,-99.93 279.65,-91.57 279.04,-83.43"/>
<polygon fill="black" stroke="black" points="282.54,-83.36 278.3,-73.65 275.56,-83.89 282.54,-83.36"/>
</g>
</g>
</svg>
